<svg width="29" height="29" viewBox="0 0 29 29" fill="none" xmlns="http://www.w3.org/2000/svg">
<g clip-path="url(#clip0_36135_62)">
<path d="M18.1892 29V27.3418C18.1892 26.9872 18.33 26.6471 18.5807 26.3964C18.8314 26.1457 19.1715 26.0049 19.526 26.0049H23.2171C23.4074 25.9998 23.5947 25.9571 23.7684 25.8794C23.9421 25.8017 24.0987 25.6905 24.2294 25.5521C24.36 25.4137 24.4619 25.2509 24.5295 25.073C24.597 24.8951 24.6287 24.7056 24.6228 24.5154V24.5428C24.6229 24.5072 24.623 22.6354 24.623 22.5679C24.6327 22.3123 24.7305 22.0679 24.8999 21.8762C25.1798 21.5535 25.3328 21.1399 25.3302 20.7126L25.3262 20.3097C25.3256 20.1852 25.3629 20.0635 25.4332 19.9607C25.5034 19.8579 25.6033 19.7789 25.7195 19.7342H26.3642C26.4837 19.7372 26.6024 19.7141 26.712 19.6665C26.8217 19.619 26.9197 19.5481 26.9992 19.4589C27.0969 19.3441 27.1597 19.2037 27.18 19.0544C27.2004 18.905 27.1774 18.753 27.1139 18.6163C26.4112 17.1421 25.7984 15.6267 25.2786 14.0785C25.1865 13.7842 25.1422 13.477 25.1475 13.1687L25.1468 10.151C25.1466 9.34141 25.0343 8.53576 24.8131 7.757L24.8093 7.74363C24.4578 6.46207 23.8084 5.28172 22.9141 4.2988C22.7212 4.09084 22.5187 3.88874 22.3064 3.69251C22.1734 3.56438 22.0378 3.43821 21.8971 3.31626C19.8783 1.56144 17.2917 0.597896 14.6168 0.604163C11.8528 0.597233 9.17329 1.55658 7.04178 3.31627C5.20707 4.89959 3.96992 7.06348 3.53622 9.4478C3.10253 11.8321 3.49846 14.2931 4.65811 16.421C6.0081 19.0349 7.06519 23.3338 7.33426 27.7917V29" stroke="white" stroke-width="2" stroke-miterlimit="10"/>
<path d="M10.2708 10.875C11.2718 10.875 12.0833 10.0635 12.0833 9.0625C12.0833 8.06148 11.2718 7.25 10.2708 7.25C9.26974 7.25 8.45825 8.06148 8.45825 9.0625C8.45825 10.0635 9.26974 10.875 10.2708 10.875Z" stroke="white" stroke-width="2" stroke-miterlimit="10"/>
<path d="M19.6353 16.3125C20.8032 16.3125 21.7499 15.3657 21.7499 14.1979C21.7499 13.03 20.8032 12.0833 19.6353 12.0833C18.4675 12.0833 17.5208 13.03 17.5208 14.1979C17.5208 15.3657 18.4675 16.3125 19.6353 16.3125Z" stroke="white" stroke-width="2" stroke-miterlimit="10"/>
<path d="M12.0833 20.5417C12.7507 20.5417 13.2917 20.0007 13.2917 19.3333C13.2917 18.666 12.7507 18.125 12.0833 18.125C11.416 18.125 10.875 18.666 10.875 19.3333C10.875 20.0007 11.416 20.5417 12.0833 20.5417Z" stroke="white" stroke-width="2" stroke-miterlimit="10"/>
<path d="M11.8303 9.97314L17.727 13.2917" stroke="white" stroke-width="2" stroke-miterlimit="10"/>
<path d="M13.1245 18.7292L17.9273 15.441" stroke="white" stroke-width="2" stroke-miterlimit="10"/>
<path d="M10.573 10.875L11.7813 18.125" stroke="white" stroke-width="2" stroke-miterlimit="10"/>
</g>
<defs>
<clipPath id="clip0_36135_62">
<rect width="29" height="29" fill="white"/>
</clipPath>
</defs>
</svg>
