<svg width="33" height="33" viewBox="0 0 33 33" fill="none" xmlns="http://www.w3.org/2000/svg">
<g clip-path="url(#clip0_36105_69)">
<path d="M30.6886 6.09264L11.6875 25.0924C11.5597 25.2206 11.4079 25.3224 11.2407 25.3918C11.0736 25.4613 10.8943 25.497 10.7133 25.497C10.5323 25.497 10.353 25.4613 10.1859 25.3918C10.0187 25.3224 9.86686 25.2206 9.73911 25.0924L2.39111 17.7375C2.26336 17.6093 2.11154 17.5075 1.94436 17.438C1.77719 17.3686 1.59795 17.3329 1.41692 17.3329C1.2359 17.3329 1.05665 17.3686 0.889479 17.438C0.722303 17.5075 0.570484 17.6093 0.442734 17.7375C0.314478 17.8653 0.212711 18.0171 0.143271 18.1843C0.0738313 18.3514 0.0380859 18.5307 0.0380859 18.7117C0.0380859 18.8927 0.0738313 19.072 0.143271 19.2391C0.212711 19.4063 0.314478 19.5581 0.442734 19.6859L7.79348 27.0353C8.56891 27.8092 9.61975 28.244 10.7154 28.244C11.811 28.244 12.8618 27.8092 13.6372 27.0353L32.637 8.03964C32.765 7.91191 32.8666 7.76018 32.9359 7.59313C33.0053 7.42608 33.0409 7.247 33.0409 7.06614C33.0409 6.88528 33.0053 6.70619 32.9359 6.53914C32.8666 6.37209 32.765 6.22036 32.637 6.09264C32.5092 5.96438 32.3574 5.86261 32.1902 5.79317C32.0231 5.72373 31.8438 5.68799 31.6628 5.68799C31.4818 5.68799 31.3025 5.72373 31.1354 5.79317C30.9682 5.86261 30.8164 5.96438 30.6886 6.09264Z" fill="black" fill-opacity="0.3"/>
</g>
<defs>
<clipPath id="clip0_36105_69">
<rect width="33" height="33" fill="white"/>
</clipPath>
</defs>
</svg>
